<?xml version="1.0" standalone="no"?>
<!DOCTYPE svg PUBLIC "-//W3C//DTD SVG 20010904//EN"
 "http://www.w3.org/TR/2001/REC-SVG-20010904/DTD/svg10.dtd">
<svg version="1.0" xmlns="http://www.w3.org/2000/svg"
 width="330.000000pt" height="150.000000pt" viewBox="0 0 330.000000 150.000000"
 preserveAspectRatio="xMidYMid meet">

<g transform="translate(0.000000,150.000000) scale(0.100000,-0.100000)"
fill="#000000" stroke="none">
<path d="M455 1059 c-10 -26 -1 -534 10 -534 14 0 19 525 5 539 -6 6 -11 4
-15 -5z"/>
<path d="M1430 1060 c0 -7 267 -10 780 -10 513 0 780 3 780 10 0 7 -267 10
-780 10 -513 0 -780 -3 -780 -10z"/>
<path d="M850 795 c0 -166 3 -246 10 -243 7 2 11 86 11 243 0 157 -4 241 -11
243 -7 3 -10 -77 -10 -243z"/>
<path d="M350 810 c0 -133 4 -210 10 -210 6 0 10 77 10 210 0 133 -4 210 -10
210 -6 0 -10 -77 -10 -210z"/>
<path d="M745 959 c-10 -26 -1 -334 10 -332 14 4 19 323 6 336 -7 7 -12 5 -16
-4z"/>
<path d="M560 795 c0 -103 4 -165 10 -165 6 0 10 62 10 165 0 103 -4 165 -10
165 -6 0 -10 -62 -10 -165z"/>
<path d="M960 789 c0 -111 3 -168 10 -164 14 8 14 335 0 335 -6 0 -10 -64 -10
-171z"/>
<path d="M240 795 c0 -89 3 -116 13 -112 17 5 17 219 0 225 -10 3 -13 -24 -13
-113z"/>
<path d="M640 795 c0 -70 4 -115 10 -115 6 0 10 45 10 115 0 70 -4 115 -10
115 -6 0 -10 -45 -10 -115z"/>
<path d="M1040 795 c0 -70 4 -115 10 -115 6 0 10 45 10 115 0 70 -4 115 -10
115 -6 0 -10 -45 -10 -115z"/>
<path d="M2880 867 c-16 -21 -20 -32 -12 -35 7 -2 12 -23 12 -53 0 -72 49
-111 100 -79 20 13 6 24 -33 24 -32 1 -32 2 -35 54 l-3 52 35 0 c25 0 36 4 36
15 0 10 -10 15 -34 15 -26 0 -35 5 -38 18 -3 16 -7 14 -28 -11z"/>
<path d="M1430 775 c0 -50 4 -85 10 -85 6 0 10 24 10 53 0 63 21 90 67 85 27
-3 28 -5 31 -70 2 -50 7 -68 17 -68 10 0 15 17 17 62 3 58 5 63 31 72 46 16
62 -1 65 -73 2 -45 7 -61 17 -61 11 0 15 13 15 49 0 97 -40 139 -102 109 -29
-13 -35 -13 -60 1 -23 13 -32 14 -60 3 -21 -8 -34 -9 -36 -2 -2 5 -8 10 -13
10 -5 0 -9 -38 -9 -85z"/>
<path d="M1762 788 c3 -67 5 -73 30 -87 23 -13 33 -14 60 -3 21 8 34 9 36 2 2
-5 8 -10 13 -10 5 0 9 38 9 85 0 50 -4 85 -10 85 -5 0 -10 -24 -10 -53 0 -61
-19 -87 -63 -87 -34 0 -47 25 -47 89 0 29 -5 51 -10 51 -7 0 -10 -27 -8 -72z"/>
<path d="M1983 850 c-33 -13 -31 -57 3 -70 14 -6 36 -10 50 -10 28 0 44 -28
23 -41 -8 -5 -33 -8 -56 -7 -28 2 -43 -1 -43 -8 0 -25 62 -32 105 -12 19 9 25
19 25 43 0 34 -23 50 -80 57 -41 5 -19 23 28 23 25 0 42 5 42 11 0 23 -55 31
-97 14z"/>
<path d="M2140 775 c0 -50 4 -85 10 -85 6 0 10 24 10 53 0 63 21 90 67 85 27
-3 28 -5 31 -70 2 -50 7 -68 17 -68 10 0 15 17 17 62 3 58 5 63 31 72 46 16
62 -1 65 -73 2 -45 7 -61 17 -61 19 0 20 94 2 130 -17 34 -56 46 -93 28 -25
-12 -32 -12 -56 2 -23 12 -32 13 -60 2 -21 -8 -34 -9 -36 -2 -2 5 -8 10 -13
10 -5 0 -9 -38 -9 -85z"/>
<path d="M2489 831 c-69 -70 -8 -156 97 -137 49 10 39 31 -14 28 -41 -3 -82
11 -82 28 0 5 30 10 68 12 l67 3 -2 30 c-5 66 -83 86 -134 36z m99 -13 c22
-22 13 -28 -43 -28 -30 0 -55 4 -55 8 0 29 74 44 98 20z"/>
<path d="M2689 831 c-31 -31 -36 -55 -18 -94 18 -40 70 -56 127 -41 38 11 19
29 -26 26 -41 -3 -82 11 -82 28 0 6 32 10 70 10 68 0 70 1 70 25 0 14 -11 37
-25 50 -34 35 -78 33 -116 -4z m95 -7 c9 -3 16 -12 16 -20 0 -10 -15 -14 -55
-14 -30 0 -55 4 -55 8 0 26 54 41 94 26z"/>
<path d="M1430 510 c0 -7 267 -10 780 -10 513 0 780 3 780 10 0 7 -267 10
-780 10 -513 0 -780 -3 -780 -10z"/>
</g>
</svg>
